{"title":"Pirates.Of.Caribbean.4.TS Russian.XviD.NoRar","uid":6409203,"size":1469827133,"categoryP":"video","categoryS":"movies","magnet":"?xt=urn:btih:3383d582ea32935ad79e8d9ce55baa98d20e9df3&amp;dn=Pirates.Of.Caribbean.4.TS+Russian.XviD.NoRar&amp;tr=udp%3A%2F%2Ftracker.openbittorrent.com%3A80&amp;tr=udp%3A%2F%2Fopen.demonii.com%3A1337&amp;tr=udp%3A%2F%2Ftracker.coppersurfer.tk%3A6969&amp;tr=udp%3A%2F%2Fexodus.desync.com%3A6969","seeders":0,"leechers":1,"uploader":"crazy-torrent","files":2,"time":1305917391,"description":" &lt;a href=&quot;http://www.scenespeeds.com/&quot; rel=&quot;nofollow&quot; target=&quot;_NEW&quot;&gt;http://www.scenespeeds.com/&lt;/a&gt;\n\n\n\nDescription\n\nFormat : AVI\nFormat/Info : Audio Video Interleave\nFile size : 1.37 GiB\nDuration : 2h 7mn\nOverall bit rate : 1 537 Kbps\nWriting application : VirtualDubMod 1.5.4.1 (build 2178/release)\nWriting library : VirtualDubMod build 2178/release\n\nVideo\n\nID : 0\nFormat : MPEG-4 Visual\nFormat profile : Advanced Simple@L5\nFormat settings, BVOP : Yes\nFormat settings, QPel : No\nFormat settings, GMC : No warppoints\nFormat settings, Matrix : Custom\nCodec ID : XVID\nCodec ID/Hint : XviD\nDuration : 2h 7mn\nBit rate : 1 399 Kbps\nWidth : 720 pixels\nHeight : 288 pixels\nDisplay aspect ratio : 2.500\nFrame rate : 23.976 fps\nColor space : YUV\nChroma subsampling : 4:2:0\nBit depth : 8 bits\nScan type : Progressive\nBits/(Pixel*Frame) : 0.281\nStream size : 1.25 GiB (91%)\nWriting library : XviD 58\n\nAudio\n\nID : 1\nFormat : AC-3\nFormat/Info : Audio Coding 3\nMode extension : CM (complete main)\nCodec ID : 2000\nDuration : 2h 7mn\nBit rate mode : Constant\nBit rate : 128 Kbps\nChannel(s) : 2 channels\nChannel positions : Front: L R\nSampling rate : 48.0 KHz\nBit depth : 16 bits\nVideo delay : 8s 0ms\nStream size : 117 MiB (8%)\nAlignment : Split accross interleaves\nInterleave, duration : 42 ms (1.00 video frame)\nInterleave, preload duration : 500 ms\n\nGenres:Action | Adventure | Fantasy\nCountry:USA\n\nJack Sparrow and Barbossa embark on a quest to find the elusive fountain of youth, only to discover that Blackbeard and his daughter are after it too.\n &lt;a href=&quot;\nhttp://www.iraqpics.net/images/m44l2kwhf0h449gr7p9.png&quot; rel=&quot;nofollow&quot; target=&quot;_NEW&quot;&gt;\nhttp://www.iraqpics.net/images/m44l2kwhf0h449gr7p9.png&lt;/a&gt; &lt;a href=&quot;\nhttp://www.iraqpics.net/images/bjdp3v2frxzt3t2k5xj.png&quot; rel=&quot;nofollow&quot; target=&quot;_NEW&quot;&gt;\nhttp://www.iraqpics.net/images/bjdp3v2frxzt3t2k5xj.png&lt;/a&gt; &lt;a href=&quot;\nhttp://www.iraqpics.net/images/lmx5kri5d5a1jas4i4.png&quot; rel=&quot;nofollow&quot; target=&quot;_NEW&quot;&gt;\nhttp://www.iraqpics.net/images/lmx5kri5d5a1jas4i4.png&lt;/a&gt; \n\n &lt;a href=&quot;\nhttp://www.scenespeeds.com/&quot; rel=&quot;nofollow&quot; target=&quot;_NEW&quot;&gt;\nhttp://www.scenespeeds.com/&lt;/a&gt;","torrent":{"xt":"urn:btih:3383d582ea32935ad79e8d9ce55baa98d20e9df3","amp;dn":"Pirates.Of.Caribbean.4.TS+Russian.XviD.NoRar","amp;tr":["udp%3A%2F%2Ftracker.openbittorrent.com%3A80","udp%3A%2F%2Fopen.demonii.com%3A1337","udp%3A%2F%2Ftracker.coppersurfer.tk%3A6969","udp%3A%2F%2Fexodus.desync.com%3A6969"],"infoHash":"3383d582ea32935ad79e8d9ce55baa98d20e9df3","infoHashBuffer":{"type":"Buffer","data":[51,131,213,130,234,50,147,90,215,158,141,156,229,91,170,152,210,14,157,243]},"announce":[],"urlList":[]}}